External Loads File
version=1
nRows=70
nColumns=13
Range=5.000000e-03-10 seconds
endheader
time 	forceRightX 	forceRightY 	forceRightZ 	pointRightX 	pointRightY 	pointRightZ 	forceLeftX 	forceLeftY 	forceLeftZ 	pointLeftX 	pointLeftY 	pointLeftZ 		
0.005000 -84.840380 187.520085 -0.000000 0.317413 0.359713 -0.105658 16.748819 240.278679 -0.000000 0.019924 0.280741 -0.341921
0.010000 -85.292339 187.177370 -0.000000 0.317360 0.359908 -0.105672 16.749119 239.560114 -0.000000 0.019939 0.280564 -0.341933
0.015000 -85.688943 186.848330 -0.000000 0.317356 0.360104 -0.105720 16.859424 238.868915 -0.000000 0.019956 0.280419 -0.341884
0.020000 -86.047767 186.513439 -0.000000 0.317362 0.360275 -0.105709 17.064996 238.236215 -0.000000 0.019956 0.280223 -0.341921
0.025000 -86.875859 185.918076 -0.000000 0.317308 0.360546 -0.105575 16.671101 237.720942 -0.000000 0.019674 0.279142 -0.341614
0.030000 -87.119245 185.539307 -0.000000 0.317284 0.360724 -0.105564 16.965338 237.228730 -0.000000 0.019634 0.278790 -0.341505
0.035000 -87.210100 185.176381 -0.000000 0.317265 0.360952 -0.105562 17.348745 236.789910 -0.000000 0.019633 0.278545 -0.341453
0.040000 -87.145476 184.838522 -0.000000 0.317277 0.361176 -0.105516 17.808641 236.388149 -0.000000 0.019597 0.278373 -0.341396
0.045000 -87.104858 184.455316 -0.000000 0.317253 0.361377 -0.105538 18.137488 236.025492 -0.000000 0.019662 0.278107 -0.341421
0.050000 -87.049702 184.063183 -0.000000 0.317216 0.361580 -0.105561 18.429098 235.691532 -0.000000 0.019693 0.277888 -0.341413
0.055000 -87.082883 183.634123 -0.000000 0.317199 0.361842 -0.105588 18.605638 235.398451 -0.000000 0.019697 0.277679 -0.341413
0.060000 -87.206518 183.190202 -0.000000 0.317187 0.362092 -0.105595 18.728960 235.154913 -0.000000 0.019729 0.277486 -0.341410
0.065000 -87.464860 182.731972 -0.000000 0.317163 0.362347 -0.105611 18.804485 234.977055 -0.000000 0.019767 0.277286 -0.341415
0.070000 -87.784672 182.307240 -0.000000 0.317160 0.362527 -0.105608 18.960061 234.866376 -0.000000 0.019712 0.277087 -0.341342
0.075000 -88.229237 181.886513 -0.000000 0.317188 0.362726 -0.105584 19.103222 234.833177 -0.000000 0.019738 0.276887 -0.341346
0.080000 -88.736270 181.491286 -0.000000 0.317169 0.362899 -0.105598 19.257893 234.871976 -0.000000 0.019823 0.276666 -0.341384
0.085000 -89.268773 181.128501 -0.000000 0.317147 0.363124 -0.105635 19.402866 234.976978 -0.000000 0.019811 0.276404 -0.341319
0.090000 -89.762018 180.822391 -0.000000 0.317156 0.363363 -0.105625 19.592436 235.133157 -0.000000 0.019844 0.276174 -0.341324
0.095000 -90.207869 180.571171 -0.000000 0.317152 0.363555 -0.105628 19.860144 235.323842 -0.000000 0.019891 0.275975 -0.341336
0.100000 -90.745989 180.294435 -0.000000 0.317116 0.363798 -0.105626 20.050088 235.542985 -0.000000 0.019994 0.275725 -0.341390
0.105000 -91.285061 180.019784 -0.000000 0.317098 0.364086 -0.105654 20.251167 235.757422 -0.000000 0.020059 0.275507 -0.341408
0.110000 -91.795514 179.740710 -0.000000 0.317075 0.364404 -0.105610 20.423187 235.943231 -0.000000 0.020050 0.275272 -0.341337
0.115000 -92.193154 179.482705 -0.000000 0.317030 0.364630 -0.105622 20.604318 236.079393 -0.000000 0.020126 0.275027 -0.341378
0.120000 -92.500942 179.223913 -0.000000 0.316992 0.364871 -0.105637 20.734018 236.172153 -0.000000 0.020214 0.274766 -0.341370
0.125000 -92.717836 178.961043 -0.000000 0.316920 0.365105 -0.105639 20.838513 236.235765 -0.000000 0.020286 0.274476 -0.341396
0.130000 -92.878920 178.680235 -0.000000 0.316869 0.365371 -0.105658 20.936758 236.285424 -0.000000 0.020364 0.274161 -0.341377
0.135000 -92.966764 178.404461 -0.000000 0.316804 0.365631 -0.105667 21.110616 236.316806 -0.000000 0.020468 0.273901 -0.341408
0.140000 -93.057408 178.111917 -0.000000 0.316756 0.365923 -0.105668 21.283567 236.325020 -0.000000 0.020493 0.273622 -0.341388
0.145000 -93.170985 177.803732 -0.000000 0.316705 0.366207 -0.105634 21.426342 236.298860 -0.000000 0.020563 0.273355 -0.341392
0.150000 -93.336318 177.465460 -0.000000 0.316639 0.366536 -0.105643 21.487496 236.239720 -0.000000 0.020622 0.273105 -0.341382
0.155000 -93.510816 177.109423 -0.000000 0.316559 0.366802 -0.105650 21.504835 236.151345 -0.000000 0.020698 0.272812 -0.341395
0.160000 -93.625904 176.753969 -0.000000 0.316470 0.367070 -0.105664 21.547937 236.037715 -0.000000 0.020768 0.272560 -0.341414
0.165000 -93.688738 176.375817 -0.000000 0.316360 0.367346 -0.105664 21.587472 235.911620 -0.000000 0.020841 0.272262 -0.341381
0.170000 -93.694196 175.964184 -0.000000 0.316253 0.367640 -0.105668 21.606011 235.782146 -0.000000 0.020942 0.271876 -0.341393
0.175000 -93.542731 175.571979 -0.000000 0.316158 0.367980 -0.105697 21.714381 235.642506 -0.000000 0.020978 0.271567 -0.341388
0.180000 -93.313869 175.170966 -0.000000 0.316059 0.368320 -0.105698 21.817038 235.502650 -0.000000 0.021037 0.271249 -0.341380
0.185000 -93.062031 174.750553 -0.000000 0.315946 0.368683 -0.105728 21.892129 235.363940 -0.000000 0.021103 0.270961 -0.341368
0.190000 -92.811020 174.309384 -0.000000 0.315838 0.368981 -0.105738 21.965404 235.220415 -0.000000 0.021175 0.270664 -0.341346
0.195000 -92.644746 173.805233 -0.000000 0.315722 0.369282 -0.105704 21.961352 235.074127 -0.000000 0.021263 0.270338 -0.341377
0.200000 -92.616822 173.209821 -0.000000 0.315616 0.369634 -0.105702 21.837355 234.923140 -0.000000 0.021364 0.269961 -0.341465
0.205000 -92.770826 172.499169 -0.000000 0.315491 0.370043 -0.105709 21.562022 234.760087 -0.000000 0.021425 0.269476 -0.341420
0.210000 -92.926096 171.761611 -0.000000 0.315344 0.370451 -0.105748 21.358544 234.548046 -0.000000 0.021515 0.269149 -0.341418
0.215000 -93.060445 170.993310 -0.000000 0.315219 0.370836 -0.105748 21.157869 234.277317 -0.000000 0.021595 0.268831 -0.341416
0.220000 -93.069461 170.238783 -0.000000 0.315116 0.371179 -0.105743 20.989879 233.941557 -0.000000 0.021674 0.268524 -0.341440
0.225000 -92.968998 169.489193 -0.000000 0.315017 0.371539 -0.105690 20.784404 233.559629 -0.000000 0.021759 0.268149 -0.341468
0.230000 -92.748057 168.763411 -0.000000 0.314894 0.371931 -0.105693 20.579959 233.143366 -0.000000 0.021787 0.267708 -0.341466
0.235000 -92.404816 168.084938 -0.000000 0.314812 0.372321 -0.105722 20.438242 232.690812 -0.000000 0.021876 0.267279 -0.341443
0.240000 -91.949218 167.469922 -0.000000 0.314715 0.372691 -0.105737 20.414117 232.192467 -0.000000 0.021940 0.266972 -0.341474
0.245000 -91.512489 166.855547 -0.000000 0.314619 0.373058 -0.105725 20.381927 231.661801 -0.000000 0.021995 0.266692 -0.341415
0.250000 -91.149376 166.210599 -0.000000 0.314553 0.373402 -0.105682 20.290860 231.120907 -0.000000 0.022032 0.266367 -0.341419
0.255000 -90.906399 165.512523 -0.000000 0.314356 0.373765 -0.105520 20.086914 230.605379 -0.000000 0.022096 0.266035 -0.341427
0.260000 -90.740146 164.799594 -0.000000 0.314255 0.374146 -0.105575 19.850401 230.145736 -0.000000 0.022128 0.265656 -0.341418
0.265000 -90.673970 164.075992 -0.000000 0.314169 0.374536 -0.105623 19.578176 229.777250 -0.000000 0.022183 0.265220 -0.341418
0.270000 -90.626250 163.398832 -0.000000 0.314050 0.374920 -0.105610 19.433842 229.510928 -0.000000 0.022253 0.264900 -0.341439
0.275000 -90.713121 162.713939 -0.000000 0.313921 0.375312 -0.105583 19.308181 229.362343 -0.000000 0.022321 0.264506 -0.341434
0.280000 -90.912375 162.045227 -0.000000 0.313807 0.375758 -0.105588 19.232362 229.308008 -0.000000 0.022407 0.264128 -0.341424
0.285000 -91.143575 161.449032 -0.000000 0.313640 0.376153 -0.105615 19.265652 229.303795 -0.000000 0.022492 0.263775 -0.341424
0.290000 -91.498257 160.876358 -0.000000 0.313482 0.376617 -0.105624 19.213520 229.329553 -0.000000 0.022553 0.263245 -0.341428
0.295000 -91.758048 160.435622 -0.000000 0.313332 0.377063 -0.105660 19.315062 229.340394 -0.000000 0.022657 0.262789 -0.341453
0.300000 -91.873431 160.118561 -0.000000 0.313168 0.377518 -0.105659 19.551143 229.321253 -0.000000 0.022741 0.262404 -0.341477
0.305000 -91.808107 159.897504 -0.000000 0.313028 0.377947 -0.105704 19.895516 229.263787 -0.000000 0.022810 0.262047 -0.341452
0.310000 -91.629189 159.694249 -0.000000 0.312860 0.378371 -0.105692 20.233315 229.174532 -0.000000 0.022912 0.261678 -0.341422
0.315000 -91.419757 159.439370 -0.000000 0.312747 0.378803 -0.105696 20.490330 229.061484 -0.000000 0.022938 0.261159 -0.341392
0.320000 -91.098240 159.167000 -0.000000 0.312641 0.379184 -0.105752 20.842508 228.906291 -0.000000 0.023035 0.260786 -0.341404
0.325000 -90.758860 158.814873 -0.000000 0.312540 0.379561 -0.105738 21.179006 228.709966 -0.000000 0.023103 0.260441 -0.341402
0.330000 -90.382657 158.395269 -0.000000 0.312453 0.379914 -0.105768 21.520774 228.470173 -0.000000 0.023172 0.260182 -0.341420
0.335000 -90.005656 157.900065 -0.000000 0.312368 0.380207 -0.105732 21.816052 228.214864 -0.000000 0.023221 0.259914 -0.341422
0.340000 -89.659434 157.332259 -0.000000 0.312321 0.380509 -0.105772 22.050990 227.983775 -0.000000 0.023271 0.259645 -0.341430
0.345000 -89.338862 156.722993 -0.000000 0.312298 0.380762 -0.105806 22.289594 227.798618 -0.000000 0.023325 0.259376 -0.341441
0.350000 -89.077100 156.084598 -0.000000 0.312307 0.381008 -0.105837 22.548591 227.659100 -0.000000 0.023340 0.259130 -0.341402
